<svg xmlns="http://www.w3.org/2000/svg" width="950" height="396" viewBox="0 0 950 396">
  <title>web_search_page</title>
  <g id="Layer_2" data-name="Layer 2">
    <g id="Layer_1-2" data-name="Layer 1">
      <g>
        <rect x="275" y="58.97" width="82.05" height="82.05" style="fill: #4285f4"/>
        <rect x="492.95" y="58.97" width="82.05" height="141.03" style="fill: #4285f4"/>
        <rect x="167.31" width="82.05" height="141.03" style="fill: #db4437"/>
        <rect x="385.26" y="58.97" width="82.05" height="82.05" style="fill: #f4b400"/>
        <rect x="600.64" width="82.05" height="141.03" style="fill: #0f9d58"/>
        <rect x="700.64" y="58.97" width="82.05" height="82.05" style="fill: #db4437"/>
      </g>
      <path d="M910,237a38,38,0,0,1,0,76H40a38,38,0,0,1,0-76H910m0-2H40a40,40,0,0,0,0,80H910a40,40,0,0,0,0-80Z" style="fill: gray"/>
      <g>
        <path d="M39.89,255A14.89,14.89,0,1,1,25,269.89,14.9,14.9,0,0,1,39.89,255m0-2a16.89,16.89,0,1,0,16.89,16.89A16.89,16.89,0,0,0,39.89,253Z" style="fill: gray"/>
        <line x1="65.51" y1="297" x2="50.07" y2="281.56" style="fill: none;stroke: gray;stroke-miterlimit: 10;stroke-width: 2px"/>
      </g>
      <g>
        <g>
          <rect x="313.5" y="350" width="151" height="46" rx="2" ry="2" style="fill: gray"/>
          <line x1="436.5" y1="373" x2="341.5" y2="373" style="fill: none;stroke: #f2f2f2;stroke-miterlimit: 10;stroke-width: 10px"/>
        </g>
        <g>
          <rect x="485.5" y="350" width="151" height="46" rx="2" ry="2" style="fill: gray"/>
          <line x1="608.5" y1="373" x2="513.5" y2="373" style="fill: none;stroke: #f2f2f2;stroke-miterlimit: 10;stroke-width: 10px"/>
        </g>
      </g>
    </g>
  </g>
</svg>
